<svg xmlns="http://www.w3.org/2000/svg" xmlns:xlink="http://www.w3.org/1999/xlink" version="1.1" x="0px" y="0px" viewBox="0 0 100 125" style="enable-background:new 0 0 100 100;" xml:space="preserve"><g><path d="M66.5,15c-6.3,0-12.3,2.7-16.5,7.3C45.8,17.7,39.8,15,33.5,15c-12.3,0-22.3,10-22.3,22.3c0,22.8,36.2,46.4,37.7,47.4   l1.1,0.7l1.1-0.8c1.5-1.1,37.7-26.2,37.7-47.3C88.8,25,78.8,15,66.5,15z M67.1,66.3C59.9,73.2,52.7,78.6,50,80.6   c-6.1-4.1-34.8-24.7-34.8-43.3c0-10.1,8.2-18.3,18.3-18.3c5.9,0,11.4,2.9,14.9,7.6l1.6,2.3l1.6-2.3c3.4-4.8,9-7.6,14.9-7.6   c10.1,0,18.3,8.2,18.3,18.3C84.8,45.1,78.7,55.1,67.1,66.3z"/></g><text x="0" y="115" fill="#000000" font-size="5px" font-weight="bold" font-family="'Helvetica Neue', Helvetica, Arial-Unicode, Arial, Sans-serif">Created by Trident</text><text x="0" y="120" fill="#000000" font-size="5px" font-weight="bold" font-family="'Helvetica Neue', Helvetica, Arial-Unicode, Arial, Sans-serif">from the Noun Project</text></svg>