<svg xmlns="http://www.w3.org/2000/svg" data-name="Layer 1" viewBox="0 0 100 125" x="0px" y="0px"><title>75</title><g data-name="Group"><path data-name="Path" d="M92.6,57l-6.8,6.8v-25A14.5,14.5,0,0,0,71.3,24.3h-28a3.5,3.5,0,0,0,0,7h28a7.5,7.5,0,0,1,7.5,7.5v25L72,57a3.5,3.5,0,0,0-4.9,4.9L79.9,74.7l.5.4h.3l.3.2h2.7l.3-.2h.3l.5-.4L97.6,61.9A3.5,3.5,0,0,0,92.6,57Z"/><path data-name="Path" d="M7.4,43l6.8-6.8v25A14.5,14.5,0,0,0,28.7,75.7h29a3.5,3.5,0,0,0,0-7h-29a7.5,7.5,0,0,1-7.5-7.5v-25L28,43a3.5,3.5,0,1,0,4.9-4.9L20.1,25.3l-.5-.4h-.2l-.4-.2H16.3l-.4.2h-.2l-.5.4h0L2.4,38.1a3.5,3.5,0,0,0,4.9,5Z"/></g><text x="0" y="115" fill="#000000" font-size="5px" font-weight="bold" font-family="'Helvetica Neue', Helvetica, Arial-Unicode, Arial, Sans-serif">Created by Ahock</text><text x="0" y="120" fill="#000000" font-size="5px" font-weight="bold" font-family="'Helvetica Neue', Helvetica, Arial-Unicode, Arial, Sans-serif">from the Noun Project</text></svg>