<svg xmlns="http://www.w3.org/2000/svg" data-name="Layer 1" viewBox="0 0 100 125" x="0px" y="0px"><title>Artboard 16</title><path d="M20,69A10,10,0,0,0,30,79H60A10,10,0,0,0,70,69V61H64v8a4,4,0,0,1-4,4H30a4,4,0,0,1-4-4V61H20Z"/><path d="M67.12,49.12l12-12a3,3,0,0,0,0-4.24l-12-12-4.24,4.24L69.76,32H58A16,16,0,0,0,42,48V64h6V48A10,10,0,0,1,58,38H69.76l-6.88,6.88Z"/><text x="0" y="115" fill="#000000" font-size="5px" font-weight="bold" font-family="'Helvetica Neue', Helvetica, Arial-Unicode, Arial, Sans-serif">Created by Gregor Cresnar</text><text x="0" y="120" fill="#000000" font-size="5px" font-weight="bold" font-family="'Helvetica Neue', Helvetica, Arial-Unicode, Arial, Sans-serif">from the Noun Project</text></svg>